<?xml version="1.0" standalone="no"?><!DOCTYPE svg PUBLIC "-//W3C//DTD SVG 1.1//EN" "http://www.w3.org/Graphics/SVG/1.1/DTD/svg11.dtd"><svg t="1557504585219" class="icon" style="" viewBox="0 0 1024 1024" version="1.1" xmlns="http://www.w3.org/2000/svg" p-id="2924" xmlns:xlink="http://www.w3.org/1999/xlink" width="200" height="200"><defs><style type="text/css"></style></defs><path d="M927.142533 924.263461c9.828856 9.828856 9.828856 25.700335 0 35.528168-8.528234 8.558933-21.409612 9.208732-31.153534 2.968611l-0.224104 0.223081-1.215688-1.159406c-0.960885-0.76134-2.090615-1.098008-2.991124-2.032286-0.87902-0.874927-1.270946-2.029216-1.980097-2.965541L698.628026 765.847475C545.719474 880.486422 328.102155 868.682585 189.032796 729.612203c-152.425551-152.460344-152.425551-399.671679 0-552.130999 152.459321-152.457274 399.645073-152.457274 552.130999 0 152.455227 152.459321 152.455227 399.670655 0 552.130999-1.779529 1.77339-3.727904 3.243881-5.507434 5.024433l186.010461 186.008414C923.527193 921.664264 925.535943 922.625148 927.142533 924.263461L927.142533 924.263461zM713.68086 205.242478c-136.924509-136.89381-358.859157-136.89381-495.752967 0-136.897903 136.898927-136.897903 358.834598 0 495.728408 136.89381 136.868227 358.828458 136.868227 495.752967 0C850.549088 564.046377 850.549088 342.111728 713.68086 205.242478L713.68086 205.242478zM713.68086 205.242478" p-id="2925"></path></svg>